<svg width="72" height="72" fill="none" xmlns="http://www.w3.org/2000/svg"><path d="M63 0H16.312v7.313H9V72h46.688v-7.313H63V0ZM10.687 70.313V9H42.75v11.25H54v50.063H10.687Zm33.75-60.12 8.37 8.37h-8.37v-8.37ZM61.314 63h-5.626V19.057L43.944 7.313H18V1.688h43.313V63Z" fill="#266BDF"/><path d="M16.594 16.313h13.5V18h-13.5v-1.688Zm0 4.5h9V22.5h-9v-1.688Zm0 6.75h31.5v1.687h-31.5v-1.688Zm0 4.5h31.5v1.687h-31.5v-1.688Zm0 9h31.5v1.687h-31.5v-1.688Zm0 4.5h22.5v1.687h-22.5v-1.688Zm0-9h31.5v1.687h-31.5v-1.688Zm20.25 15.75h11.25V54h-11.25v-1.688Z" fill="#266BDF"/></svg>