<svg width="72" height="72" fill="none" xmlns="http://www.w3.org/2000/svg"><path d="M65.25 1.125H6.75A5.631 5.631 0 0 0 1.125 6.75v45a5.631 5.631 0 0 0 5.625 5.625h34.875v1.124c0 3.305 1.287 6.413 3.625 8.751A12.296 12.296 0 0 0 54 70.875c6.823 0 12.375-5.552 12.375-12.375v-1.239a5.635 5.635 0 0 0 4.5-5.511v-45a5.631 5.631 0 0 0-5.625-5.625ZM64.125 58.5c0 5.582-4.543 10.125-10.125 10.125a10.062 10.062 0 0 1-7.16-2.967 10.06 10.06 0 0 1-2.966-7.16v-2.905a7.905 7.905 0 0 0-.832-3.521l-1.344-2.689a.697.697 0 0 1 .622-1.008 3.81 3.81 0 0 1 3.805 3.805v2.945h2.25V36c0-.62.505-1.125 1.125-1.125s1.125.505 1.125 1.125v19.125h2.25v-9c0-.62.505-1.125 1.125-1.125s1.125.505 1.125 1.125v9h2.25V47.25c0-.62.505-1.125 1.125-1.125s1.125.505 1.125 1.125v7.875h2.25v-6.75a1.126 1.126 0 0 1 2.25 0V58.5Zm4.5-6.75a3.37 3.37 0 0 1-2.25 3.168v-6.543A3.38 3.38 0 0 0 63 45a3.34 3.34 0 0 0-1.655.451 3.368 3.368 0 0 0-2.845-1.576 3.34 3.34 0 0 0-1.655.451A3.368 3.368 0 0 0 54 42.75c-.396 0-.772.081-1.125.207V36a3.38 3.38 0 0 0-3.375-3.375A3.38 3.38 0 0 0 46.125 36v11.509c-1.043-.85-2.356-1.384-3.805-1.384a2.949 2.949 0 0 0-2.635 4.264l1.346 2.69c.318.638.506 1.337.566 2.047H6.75a3.38 3.38 0 0 1-3.375-3.375V6.75A3.38 3.38 0 0 1 6.75 3.375h58.5a3.38 3.38 0 0 1 3.375 3.375v45Z" fill="#266BDF"/><path d="M41.625 5.625H7.875c-1.24 0-2.25 1.01-2.25 2.25v22.5c0 1.24 1.01 2.25 2.25 2.25h33.75c1.24 0 2.25-1.01 2.25-2.25v-22.5c0-1.24-1.01-2.25-2.25-2.25Zm0 2.25.001 15.75H40.5c-.62 0-1.125-.505-1.125-1.125v-9A3.38 3.38 0 0 0 36 10.125a3.38 3.38 0 0 0-3.375 3.375v9c0 .62-.505 1.125-1.125 1.125s-1.125-.505-1.125-1.125v-5.625A3.38 3.38 0 0 0 27 13.5a3.38 3.38 0 0 0-3.375 3.375v3.375c0 .62-.505 1.125-1.125 1.125s-1.125-.505-1.125-1.125V13.5A3.38 3.38 0 0 0 18 10.125a3.38 3.38 0 0 0-3.375 3.375v11.25c0 .62-.505 1.125-1.125 1.125s-1.125-.505-1.125-1.125v-1.125A3.38 3.38 0 0 0 9 20.25H7.875V7.875h33.75Zm-33.75 22.5V22.5H9c.62 0 1.125.505 1.125 1.125v1.125a3.38 3.38 0 0 0 3.375 3.375 3.38 3.38 0 0 0 3.375-3.375V13.5c0-.62.505-1.125 1.125-1.125s1.125.505 1.125 1.125v6.75a3.38 3.38 0 0 0 3.375 3.375 3.38 3.38 0 0 0 3.375-3.375v-3.375c0-.62.505-1.125 1.125-1.125s1.125.505 1.125 1.125V22.5a3.38 3.38 0 0 0 3.375 3.375 3.38 3.38 0 0 0 3.375-3.375v-9c0-.62.505-1.125 1.125-1.125s1.125.505 1.125 1.125v9a3.38 3.38 0 0 0 3.375 3.375h1.126v4.5H7.875Zm2.25 13.5a4.504 4.504 0 0 0-4.5 4.5c0 2.482 2.018 4.5 4.5 4.5s4.5-2.018 4.5-4.5-2.018-4.5-4.5-4.5Zm0 6.75c-1.24 0-2.25-1.01-2.25-2.25s1.01-2.25 2.25-2.25 2.25 1.01 2.25 2.25-1.01 2.25-2.25 2.25Zm11.25-6.75a4.504 4.504 0 0 0-4.5 4.5c0 2.482 2.018 4.5 4.5 4.5s4.5-2.018 4.5-4.5-2.018-4.5-4.5-4.5Zm0 6.75c-1.24 0-2.25-1.01-2.25-2.25s1.01-2.25 2.25-2.25 2.25 1.01 2.25 2.25-1.01 2.25-2.25 2.25Zm11.25-6.75a4.504 4.504 0 0 0-4.5 4.5c0 2.482 2.018 4.5 4.5 4.5s4.5-2.018 4.5-4.5-2.018-4.5-4.5-4.5Zm0 6.75c-1.24 0-2.25-1.01-2.25-2.25s1.01-2.25 2.25-2.25 2.25 1.01 2.25 2.25-1.01 2.25-2.25 2.25ZM12.375 38.25A3.38 3.38 0 0 0 9 34.875a3.38 3.38 0 0 0-3.375 3.375A3.38 3.38 0 0 0 9 41.625a3.38 3.38 0 0 0 3.375-3.375Zm-4.5 0c0-.62.505-1.125 1.125-1.125s1.125.505 1.125 1.125S9.62 39.375 9 39.375s-1.125-.505-1.125-1.125Zm13.5 0A3.38 3.38 0 0 0 18 34.875a3.38 3.38 0 0 0-3.375 3.375A3.38 3.38 0 0 0 18 41.625a3.38 3.38 0 0 0 3.375-3.375Zm-4.5 0c0-.62.505-1.125 1.125-1.125s1.125.505 1.125 1.125-.505 1.125-1.125 1.125-1.125-.505-1.125-1.125Zm13.5 0A3.38 3.38 0 0 0 27 34.875a3.38 3.38 0 0 0-3.375 3.375A3.38 3.38 0 0 0 27 41.625a3.38 3.38 0 0 0 3.375-3.375ZM27 39.375c-.62 0-1.125-.505-1.125-1.125s.505-1.125 1.125-1.125 1.125.505 1.125 1.125-.505 1.125-1.125 1.125Zm9-4.5a3.38 3.38 0 0 0-3.375 3.375A3.38 3.38 0 0 0 36 41.625a3.38 3.38 0 0 0 3.375-3.375A3.38 3.38 0 0 0 36 34.875Zm0 4.5c-.62 0-1.125-.505-1.125-1.125s.505-1.125 1.125-1.125 1.125.505 1.125 1.125-.505 1.125-1.125 1.125Zm14.625-17.793V5.625h-2.25v15.957a3.37 3.37 0 0 0-2.25 3.168 3.37 3.37 0 0 0 2.25 3.168v2.457h2.25v-2.457a3.37 3.37 0 0 0 2.25-3.168 3.37 3.37 0 0 0-2.25-3.168ZM49.5 25.875c-.62 0-1.125-.505-1.125-1.125s.505-1.125 1.125-1.125 1.125.505 1.125 1.125-.505 1.125-1.125 1.125Zm7.875-15.543V5.625h-2.25v4.707a3.37 3.37 0 0 0-2.25 3.168 3.37 3.37 0 0 0 2.25 3.168v13.707h2.25V16.668a3.37 3.37 0 0 0 2.25-3.168 3.37 3.37 0 0 0-2.25-3.168Zm-1.125 4.293c-.62 0-1.125-.505-1.125-1.125s.505-1.125 1.125-1.125 1.125.505 1.125 1.125-.505 1.125-1.125 1.125Zm7.875 4.707V5.625h-2.25v13.707a3.37 3.37 0 0 0-2.25 3.168 3.37 3.37 0 0 0 2.25 3.168v4.707h2.25v-4.707a3.37 3.37 0 0 0 2.25-3.168 3.37 3.37 0 0 0-2.25-3.168ZM63 23.625c-.62 0-1.125-.505-1.125-1.125s.505-1.125 1.125-1.125 1.125.505 1.125 1.125-.505 1.125-1.125 1.125Z" fill="#266BDF"/></svg>