<svg width="72" height="72" fill="none" xmlns="http://www.w3.org/2000/svg"><g clip-path="url(#a)" fill="#266BDF"><path d="M61.45 10.55c-14.065-14.065-36.832-14.068-50.9 0-14.065 14.065-14.067 36.833 0 50.9 14.066 14.066 36.833 14.068 50.9 0 14.066-14.065 14.068-36.833 0-50.9ZM36 69.743C17.395 69.743 2.258 54.606 2.258 36 2.258 17.395 17.395 2.258 36 2.258c18.606 0 33.743 15.137 33.743 33.742 0 18.606-15.137 33.743-33.743 33.743Z"/><path d="M36 6.757C19.877 6.757 6.758 19.875 6.758 36s13.119 29.243 29.244 29.243c16.124 0 29.243-13.118 29.243-29.243S52.126 6.757 36 6.757Zm0 56.237C21.117 62.994 9.008 50.884 9.008 36S21.116 9.006 36 9.006 62.994 21.116 62.994 36c0 14.885-12.11 26.994-26.994 26.994Z"/><path d="M37.124 32.82V21.377a1.125 1.125 0 0 0-2.25 0V32.82a3.377 3.377 0 0 0-1.919 4.635l-5.624 5.624c-.71.71-.198 1.92.795 1.92.288 0 .576-.11.796-.33l5.623-5.623c.019-.019.532.33 1.454.33A3.378 3.378 0 0 0 39.374 36a3.38 3.38 0 0 0-2.25-3.18ZM36 37.124a1.126 1.126 0 0 1 0-2.25 1.126 1.126 0 0 1 0 2.25Zm0-21.369c.621 0 1.125-.504 1.125-1.125v-2.25a1.125 1.125 0 0 0-2.25 0v2.25c0 .621.504 1.124 1.125 1.124Zm15.907 2.748-1.59 1.59a1.125 1.125 0 1 0 1.59 1.591l1.59-1.59a1.125 1.125 0 0 0-1.59-1.59Zm7.713 16.372h-2.25a1.125 1.125 0 0 0 0 2.25h2.25a1.125 1.125 0 0 0 0-2.25Zm-7.713 15.441a1.125 1.125 0 0 0-1.59 1.59l1.59 1.59c.22.22.507.33.795.33.993 0 1.507-1.209.795-1.92l-1.59-1.59ZM36 56.245c-.62 0-1.124.504-1.124 1.125v2.25a1.125 1.125 0 0 0 2.249 0v-2.25c0-.621-.504-1.125-1.125-1.125Zm-15.906-5.929-1.59 1.59a1.124 1.124 0 1 0 1.59 1.59l1.59-1.59a1.125 1.125 0 1 0-1.59-1.59ZM14.63 34.875h-2.25a1.125 1.125 0 0 0 0 2.25h2.25a1.125 1.125 0 0 0 0-2.25Zm5.464-16.372a1.125 1.125 0 1 0-1.59 1.59l1.59 1.591c.22.22.507.33.795.33.993 0 1.506-1.21.795-1.92l-1.59-1.59Z"/></g><defs><clipPath id="a"><path fill="#fff" d="M0 0h72v72H0z"/></clipPath></defs></svg>