<svg width="72" height="72" fill="none" xmlns="http://www.w3.org/2000/svg"><g clip-path="url(#a)"><path d="M70.945 50.515h-3.313V16.658a5.462 5.462 0 0 0-5.456-5.457H55.77a1.055 1.055 0 1 0 0 2.11h6.406a3.35 3.35 0 0 1 3.347 3.347v33.857H6.477V16.658a3.35 3.35 0 0 1 3.347-3.347h26.609c-.018.16-.005 1.732-.08 2.258H9.792c-.583 0-1.055.472-1.055 1.055v30.578c0 .582.472 1.054 1.055 1.054h6.438a1.055 1.055 0 1 0 0-2.11h-5.384V17.68h24.778c-.71 1.178-1.848 2.028-3.245 3.071-.7.522-1.452 1.084-2.207 1.742a1.053 1.053 0 0 0-.89-.492h-3.396v-1.145c0-.582-.472-1.054-1.055-1.054h-6.304c-.582 0-1.054.472-1.054 1.055V40.65c0 .582.472 1.054 1.054 1.054h10.754c.582 0 1.055-.472 1.055-1.054v-.66c.98.13 1.736.38 2.46.934.656.503 1.466.78 2.281.78h13.83c2.419 0 4.003-3.004 2.754-4.984 1.381-.967 1.792-3.06.84-4.476 1.413-1.366 1.658-2.83.735-4.39a3.25 3.25 0 0 0 1.292-2.594 3.257 3.257 0 0 0-3.254-3.253h-8.616c.387-1.399.552-2.83.498-4.327h17.998v28.468H20.825a1.055 1.055 0 1 0 0 2.11h41.383c.583 0 1.055-.473 1.055-1.055V16.624c0-.582-.472-1.055-1.055-1.055H42.941a20.925 20.925 0 0 0-.504-2.258h8.738a1.055 1.055 0 1 0 0-2.11h-10.01c-1.166-.748-2.331-.748-3.496 0H9.824a5.462 5.462 0 0 0-5.456 5.457v33.857H1.055c-.583 0-1.055.472-1.055 1.054v4.334a5.462 5.462 0 0 0 5.456 5.457h28.4a1.055 1.055 0 1 0 0-2.11h-28.4a3.35 3.35 0 0 1-3.347-3.346v-3.28h24.1v3.313c0 .583.472 1.055 1.055 1.055h17.472c.583 0 1.055-.472 1.055-1.055v-3.313h24.1v3.28a3.35 3.35 0 0 1-3.347 3.346H38.45a1.055 1.055 0 1 0 0 2.11h28.093A5.462 5.462 0 0 0 72 55.904v-4.335c0-.582-.472-1.054-1.055-1.054ZM19.582 21.91h4.194v17.684h-4.194V21.91Zm8.644 17.684h-2.34V24.11h2.34v15.485ZM40.258 13.37c1.074 3.522 1.06 6.48-.045 9.308-.179.825.149 1.305.983 1.438h10.078a1.145 1.145 0 0 1 0 2.288H48.54a1.055 1.055 0 0 0 0 2.11h1.99a1.145 1.145 0 0 1 0 2.287h-1.99a1.055 1.055 0 0 0 0 2.11h1.26a1.145 1.145 0 0 1 0 2.287h-1.99a1.055 1.055 0 1 0 0 2.11h1.099a1.144 1.144 0 0 1-.001 2.287h-13.83c-.353 0-.708-.122-.997-.345-1.22-.934-2.498-1.25-3.744-1.386V25.262c1.06-1.145 2.2-1.996 3.305-2.82 2.643-1.973 5.139-3.836 4.883-8.757.029-.565.324-.877.887-.934.387 0 .735.254.847.619Zm3.424 41.513H28.318v-2.258h15.363v2.258Z" fill="#266BDF"/></g><defs><clipPath id="a"><path fill="#fff" d="M0 0h72v72H0z"/></clipPath></defs></svg>