<svg width="581" height="751" fill="none" xmlns="http://www.w3.org/2000/svg"><path d="M343.808 143.073H2v604.959h418.134V219.518m-76.326-76.445 76.326 76.445m-76.326-76.445v76.445h76.326" stroke="url(#a)" stroke-width="4"/><path d="M421.335 71.9H79.527v605.228h418.134V148.38M421.335 71.9l76.326 76.48M421.335 71.9v76.48h76.326" stroke="url(#b)" stroke-width="4"/><path opacity=".5" d="M502.673 2H160.865v603.415h418.134V78.251M502.673 2l76.326 76.25M502.673 2v76.25h76.326" stroke="url(#c)" stroke-width="4"/><path stroke="url(#d)" stroke-width="4" d="M73.174 283.416h275.79"/><path stroke="url(#e)" stroke-width="4" d="M73.174 354.588h275.79"/><path stroke="url(#f)" stroke-width="4" d="M73.174 405.425h275.79"/><path stroke="url(#g)" stroke-width="4" d="M73.174 456.262h275.79"/><path stroke="url(#h)" stroke-width="4" d="M73.174 507.099h275.79"/><path stroke="url(#i)" stroke-width="4" d="M73.174 557.935h275.79"/><path stroke="url(#j)" stroke-width="4" d="M73.174 608.772h137.895"/><circle cx="308.295" cy="641.275" r="38.67" stroke="url(#k)" stroke-width="4"/><defs><linearGradient id="b" x1="497.661" y1="71.901" x2="164.358" y2="355.363" gradientUnits="userSpaceOnUse"><stop stop-color="#fff"/><stop offset="1" stop-color="#fff" stop-opacity="0"/></linearGradient><linearGradient id="c" x1="578.999" y1="2" x2="246.535" y2="285.597" gradientUnits="userSpaceOnUse"><stop stop-color="#fff"/><stop offset="1" stop-color="#fff" stop-opacity="0"/></linearGradient><linearGradient id="d" x1="72.826" y1="286.416" x2="348.826" y2="286.416" gradientUnits="userSpaceOnUse"><stop stop-color="#fff" stop-opacity="0"/><stop offset="1" stop-color="#fff"/></linearGradient><linearGradient id="e" x1="72.826" y1="357.587" x2="348.826" y2="357.587" gradientUnits="userSpaceOnUse"><stop stop-color="#fff" stop-opacity="0"/><stop offset="1" stop-color="#fff"/></linearGradient><linearGradient id="f" x1="72.826" y1="408.425" x2="348.826" y2="408.425" gradientUnits="userSpaceOnUse"><stop stop-color="#fff" stop-opacity="0"/><stop offset="1" stop-color="#fff"/></linearGradient><linearGradient id="g" x1="72.826" y1="459.261" x2="348.826" y2="459.261" gradientUnits="userSpaceOnUse"><stop stop-color="#fff" stop-opacity="0"/><stop offset="1" stop-color="#fff"/></linearGradient><linearGradient id="h" x1="72.826" y1="510.098" x2="348.826" y2="510.098" gradientUnits="userSpaceOnUse"><stop stop-color="#fff" stop-opacity="0"/><stop offset="1" stop-color="#fff"/></linearGradient><linearGradient id="i" x1="72.826" y1="560.935" x2="348.826" y2="560.935" gradientUnits="userSpaceOnUse"><stop stop-color="#fff" stop-opacity="0"/><stop offset="1" stop-color="#fff"/></linearGradient><linearGradient id="j" x1="73" y1="611.772" x2="211" y2="611.772" gradientUnits="userSpaceOnUse"><stop stop-color="#fff" stop-opacity="0"/><stop offset="1" stop-color="#fff"/></linearGradient><linearGradient id="k" x1="308.295" y1="600.605" x2="308.295" y2="681.944" gradientUnits="userSpaceOnUse"><stop stop-color="#fff"/><stop offset="1" stop-color="#fff" stop-opacity="0"/></linearGradient><radialGradient id="a" cx="0" cy="0" r="1" gradientUnits="userSpaceOnUse" gradientTransform="rotate(122.632 144.193 194.208) scale(615.684 425.546)"><stop stop-color="#fff"/><stop offset="1" stop-color="#fff" stop-opacity="0"/></radialGradient></defs></svg>