<svg width="728" height="588" fill="none" xmlns="http://www.w3.org/2000/svg"><path d="M496.262 105.122c0 69.233-72.734 169.971-81.679 169.971-8.945 0-81.679-100.738-81.679-169.971 0-44.803 36.569-81.122 81.679-81.122s81.679 36.32 81.679 81.122Z" stroke="#fff" stroke-width="4" stroke-miterlimit="10" stroke-linecap="round" stroke-linejoin="round"/><path d="M414.584 157.093c27.672 0 50.105-22.422 50.105-50.081 0-27.66-22.433-50.082-50.105-50.082-27.673 0-50.105 22.422-50.105 50.082 0 27.659 22.432 50.081 50.105 50.081ZM400.17 299.791c-20.687-3.204-35.691-12.724-35.691-23.971 0-10.001 11.865-18.638 29.04-22.68m43.715 0c16.238 4.162 27.455 13.055 27.455 23.353 0 1.392-.204 2.757-.599 4.088" stroke="#fff" stroke-width="4" stroke-miterlimit="10" stroke-linecap="round" stroke-linejoin="round"/><path d="M348.005 56.93h-29.842c-21.426 0-38.796 17.51-38.796 39.109v426.713c0 21.599 17.37 39.108 38.796 39.108h106.716m113.939-204.441V96.046c0-21.603-18.154-39.116-40.549-39.116h-17.107M334.277 91.233h-54.91m258.077 0h-42.555M279.367 524.814h144.139" stroke="#fff" stroke-width="4" stroke-miterlimit="10" stroke-linecap="round" stroke-linejoin="round"/><g opacity=".5" stroke="#fff" stroke-width="4" stroke-miterlimit="10" stroke-linecap="round" stroke-linejoin="round"><path d="M279.369 155.721h-37.685c-8.008 0-15.187 5.1-18.05 12.822l-9.504 25.64c-2.445 6.597 2.273 13.677 9.114 13.677h56.122m-.001 0h-62.237c-27.422 0-53.167 13.049-69.167 35.057l-67.195 92.421c-12.788 17.588-19.666 38.7-19.666 60.357v88.31c0 12.687 10.407 22.972 23.244 22.972h107.532c4.328 0 8.509-1.551 11.768-4.366l9.26-7.996a18.01 18.01 0 0 1 11.768-4.365h54.695m-136.93 71.61H95.075c-6.633 0-12.01-5.33-12.01-11.905v-42.978h71.382v42.978c0 6.575-5.377 11.905-12.01 11.905Z"/><path d="M279.368 338.877c-28.031 0-56.063 1.23-84.016 3.692l-24.055 2.119c-28.357 2.498-56.428-7.334-77.245-27.055l-.005-.005m-12.355 15.093H25.543c-12.962 0-23.47-10.137-23.47-22.64 0-12.504 10.508-22.639 23.47-22.639h23.672c8.664 0 15.687 6.774 15.687 15.131v30.148M61.1 454.837h134.529m83.74 0h-38.376c-5.464 0-10.414-3.17-12.623-8.086l-13.699-30.472c-4.035-8.976 2.646-19.07 12.623-19.07h52.072m-108.445 2.111c0 14.019-19.311 17.099-43.131 17.099s-41.934-7.272-43.13-21.241c-1.742-20.33 6.613-29.527 30.434-29.527s55.827 19.65 55.827 33.669Zm-23.337-154.413h131.784"/></g><path d="M459.197 424.651v-32.277c0-10.969 8.912-19.862 19.905-19.862s19.905 8.893 19.905 19.862v32.277m.001 0v-32.277c0-10.969 9.219-19.862 20.591-19.862 11.373 0 20.591 8.893 20.591 19.862v32.277" stroke="#fff" stroke-width="4" stroke-miterlimit="10" stroke-linecap="round" stroke-linejoin="round"/><path d="M539.504 424.981v-19.719c0-11.203 9.065-20.284 20.248-20.284 11.183 0 20.248 9.081 20.248 20.284v90.415c0 36.552-29.581 66.183-66.07 66.183h-29.845c-36.489 0-66.069-29.631-66.069-66.183V313.213c0-11.202 9.065-20.283 20.248-20.283 11.183 0 20.248 9.081 20.248 20.283v111.768" stroke="#fff" stroke-width="4" stroke-miterlimit="10" stroke-linecap="round" stroke-linejoin="round"/></svg>