<svg width="455" height="396" fill="none" xmlns="http://www.w3.org/2000/svg"><path d="M362 61.123C362 111.581 309.016 185 302.5 185c-6.516 0-59.5-73.419-59.5-123.877C243 28.47 269.639 2 302.5 2 335.361 2 362 28.47 362 61.123Z" stroke="#fff" stroke-width="4" stroke-miterlimit="10" stroke-linecap="round" stroke-linejoin="round"/><path d="M302.5 99c20.158 0 36.5-16.342 36.5-36.5S322.658 26 302.5 26 266 42.342 266 62.5 282.342 99 302.5 99ZM292 203c-15.07-2.335-26-9.273-26-17.47 0-7.289 8.644-13.584 21.155-16.53M319 169c11.828 3.034 20 9.515 20 17.021 0 1.013-.149 2.009-.436 2.979" stroke="#fff" stroke-width="4" stroke-miterlimit="10" stroke-linecap="round" stroke-linejoin="round"/><path d="M254 26h-21.738C216.653 26 204 38.761 204 54.503v310.994C204 381.239 216.653 394 232.262 394H310m83-149V54.508C393 38.764 379.775 26 363.462 26H351M244 51h-40m188 0h-31M204 367h105" stroke="#fff" stroke-width="4" stroke-miterlimit="10" stroke-linecap="round" stroke-linejoin="round"/><g opacity=".5" stroke="#fff" stroke-width="4" stroke-miterlimit="10" stroke-linecap="round" stroke-linejoin="round"><path d="M204 98h-27.452c-5.834 0-11.063 3.717-13.149 9.345l-6.923 18.686c-1.781 4.809 1.656 9.969 6.639 9.969h40.883m0 0h-45.337c-19.976 0-38.73 9.51-50.386 25.549l-48.949 67.358C50.011 241.726 45 257.112 45 272.896v64.362C45 346.504 52.581 354 61.933 354h78.333c3.152 0 6.198-1.131 8.572-3.182l6.746-5.828a13.116 13.116 0 0 1 8.573-3.181H204M104.25 394h-34.5c-4.833 0-8.75-3.885-8.75-8.677V354h52v31.323c0 4.792-3.918 8.677-8.75 8.677Z"/><path d="M204 231.486c-20.42 0-40.84.897-61.203 2.692l-17.523 1.544c-20.657 1.82-41.106-5.345-56.27-19.718L69 216m-9 11H19.098C9.655 227 2 219.612 2 210.5c0-9.113 7.655-16.5 17.098-16.5h17.244c6.311 0 11.428 4.937 11.428 11.028V227M45 316h98m61 0h-27.956c-3.98 0-7.585-2.311-9.195-5.894l-9.979-22.208c-2.939-6.542 1.928-13.898 9.196-13.898h37.932M125 275.538C125 285.756 110.933 288 93.581 288c-17.353 0-30.548-5.299-31.42-15.481C60.894 257.703 66.98 251 84.333 251 101.685 251 125 265.321 125 275.538ZM108 163h96"/></g><path d="M335 294v-23.524c0-7.995 6.492-14.476 14.5-14.476s14.5 6.481 14.5 14.476V294m0 0v-23.524c0-7.995 6.716-14.476 15-14.476 8.285 0 15 6.481 15 14.476V294" stroke="#fff" stroke-width="4" stroke-miterlimit="10" stroke-linecap="round" stroke-linejoin="round"/><path d="M393.5 294.24v-14.371c0-8.165 6.603-14.783 14.75-14.783 8.146 0 14.75 6.618 14.75 14.783v65.895c0 26.64-21.549 48.236-48.13 48.236h-21.741C326.548 394 305 372.404 305 345.764V212.782c0-8.164 6.604-14.782 14.75-14.782s14.75 6.618 14.75 14.782v81.458" stroke="#fff" stroke-width="4" stroke-miterlimit="10" stroke-linecap="round" stroke-linejoin="round"/></svg>