<svg width="123" height="123" fill="none" xmlns="http://www.w3.org/2000/svg"><path fill="#fff" stroke="#2473FB" stroke-width="3" d="M17.5 9.5h96v93h-96z"/><path fill="#fff" stroke="#2473FB" stroke-width="3" d="M9.5 17.5h96v93h-96z"/><path stroke="#2473FB" stroke-width="3" d="M9 30.5h97m-86 16h11m10 0h11m11 0h11m10 0h11m-75 16h11m10 0h11m11 0h11m10 0h11m-75 16h11m10 0h11m32 0h11m-75 16h11m10 0h11m11 0h11m10 0h11"/><circle cx="68.5" cy="78.5" r="9" stroke="#2473FB" stroke-width="3"/><path d="m65 78 3 3 5-5" stroke="#2473FB" stroke-width="3"/></svg>