<svg width="123" height="123" fill="none" xmlns="http://www.w3.org/2000/svg"><path stroke="#2473FB" stroke-width="3" d="M29.5 1.5h76v107h-76z"/><path d="M16.5 13.5h57.879L93.5 32.621V121.5h-77v-108Z" fill="#fff" stroke="#2473FB" stroke-width="3"/><path stroke="#2473FB" stroke-width="3" d="M28 29.5h24m-24 8h24m-24 11h54m-54 8h54m-54 8h54m-54 8h14"/><circle cx="59" cy="97" r="15.5" fill="#fff" stroke="#2473FB" stroke-width="3"/><path stroke="#2473FB" stroke-width="3" stroke-linecap="round" d="M120.5 96.5h-3"/><path d="M74.434 97.629c.606-1.314 1.46-2.363 2.444-3.073.979-.706 2.055-1.056 3.122-1.056 1.067 0 2.143.35 3.122 1.056.984.71 1.838 1.76 2.444 3.073" stroke="#2473FB" stroke-width="3"/><circle cx="101" cy="97" r="15.5" fill="#fff" stroke="#2473FB" stroke-width="3"/><path stroke="#2473FB" stroke-width="3" stroke-linecap="round" d="M42.5 96.5h-3"/></svg>