<svg width="120" height="33" fill="none" xmlns="http://www.w3.org/2000/svg"><path d="M15.957 13.214H7.544V.176H.124v32.263h7.42V19.443h8.392l-1.997-3.094 2.018-3.135Zm22.95 19.226V.175h-7.419v32.263h7.42ZM53.352.176v32.263h7.378V.176h-7.378ZM73.25 16.349 83.713.176h8.381l-10.41 16.173 10.41 16.09h-8.485L73.251 16.35Z" fill="#1E468A" fill-opacity=".4"/><path d="M39.973 32.44h-8.485L52.36.175h8.371L39.973 32.439ZM10.534 16.349 20.996.176h8.37L18.958 16.349l10.41 16.09h-8.485L10.534 16.35Zm71.15 0L71.222.176h-8.37L73.25 16.349l-10.4 16.09h8.474l10.359-16.09ZM105.617 0c-2.711 0-4.79 1.697-5.266 4.17h-1.366V.176h-2.339v10.161h2.339V6.198h1.335c.424 2.546 2.545 4.315 5.297 4.315 3.094 0 5.371-2.225 5.371-5.256 0-3.032-2.277-5.257-5.371-5.257Zm0 8.506c-1.686 0-2.99-1.304-2.99-3.25 0-1.945 1.304-3.249 2.99-3.249 1.687 0 2.991 1.304 2.991 3.25 0 1.945-1.304 3.249-2.991 3.249ZM120 .176h-7.17v10.161h2.338l-.01-8.247h4.832L120 .176Z" fill="#1E468A"/></svg>